<?xml version="1.0" encoding="UTF-8"?>
<!DOCTYPE svg PUBLIC "-//W3C//DTD SVG 1.1//EN" "http://www.w3.org/Graphics/SVG/1.1/DTD/svg11.dtd">
<svg xmlns="http://www.w3.org/2000/svg" xmlns:xlink="http://www.w3.org/1999/xlink">
	<defs>
		<clipPath id="camera-a">
			<path fill="#fff" d="M0 0h24v24H0z"/>
		</clipPath>
	</defs>
<symbol id="adv-building" viewBox="0 0 24 25">
	<path fill="#B9DDFF" fill-rule="evenodd" d="M3 8.164V19a2.5 2.5 0 0 0 2.5 2.5H7v-5h3v5h1.5A2.5 2.5 0 0 0 14 19V8.164a1.5 1.5 0 0 0-.491-1.11L9.173 3.11a1 1 0 0 0-1.346 0L3.491 7.054A1.5 1.5 0 0 0 3 8.164Zm8 .336H6v2h5v-2Zm-5 4h5v2H6v-2Zm10 0h3v2h-3v-2Zm3 4h-3v2h3v-2Z" clip-rule="evenodd"/>
	<path fill="#0171DD" fill-rule="evenodd" d="M11 8.5H6v2h5v-2Zm7.5 13h-7A2.5 2.5 0 0 0 14 19v-8.5h4.5A2.5 2.5 0 0 1 21 13v6a2.5 2.5 0 0 1-2.5 2.5Zm.5-9h-3v2h3v-2Zm-3 4h3v2h-3v-2Zm-6 0H7v5h3v-5Zm-4-4h5v2H6v-2Z" clip-rule="evenodd"/>
</symbol>
<symbol id="adv-eye" viewBox="0 0 24 25">
	<path fill="#B9DDFF" d="M21 12.5c0 3-4.03 6.5-9 6.5s-9-3.5-9-6.5S7.03 6 12 6s9 3.5 9 6.5Z"/>
	<path fill="#0171DD" d="M9 12.5a3 3 0 1 0 6 0 3 3 0 0 0-6 0Z"/>
</symbol>
<symbol id="adv-laser" viewBox="0 0 24 25">
	<path fill="#B8D9F7" fill-rule="evenodd" d="M5.1 3.3a.5.5 0 0 1 .4-.8h13a.5.5 0 0 1 .4.8l-.6.8a1 1 0 0 1-.8.4h-3l-.707.707a1 1 0 0 1-.707.293h-2.172a1 1 0 0 1-.707-.293L9.5 4.5h-3a1 1 0 0 1-.8-.4l-.6-.8Zm9.943 14.282c.707-.53.957-1.11.957-1.582 0-.303-.103-.651-.365-1.002A13.414 13.414 0 0 0 12 14.5c-1.26 0-2.48.174-3.635.499C8.103 15.349 8 15.697 8 16c0 .472.25 1.052.957 1.582.708.53 1.777.918 3.043.918 1.266 0 2.335-.387 3.043-.918ZM18 16l-.001-.085c.753.379 1.465.826 2.126 1.334.675.52 1.058 1.375.787 2.183a4.502 4.502 0 0 1-4.267 3.068h-9.29a4.502 4.502 0 0 1-4.267-3.068c-.27-.808.112-1.663.788-2.183.66-.508 1.372-.955 2.125-1.334L6 16c0 2.485 2.686 4.5 6 4.5s6-2.015 6-4.5Z" clip-rule="evenodd"/>
	<path fill="#0171DD" fill-rule="evenodd" d="M11 5.5h2v8.2c.598.26 1 .745 1 1.3 0 .828-.895 1.5-2 1.5s-2-.672-2-1.5c0-.555.402-1.04 1-1.3V5.5Zm6.999 10.415L18 16c0 2.485-2.686 4.5-6 4.5S6 18.485 6 16l.001-.085c.75-.377 1.54-.685 2.364-.916C8.103 15.349 8 15.697 8 16c0 .472.25 1.052.957 1.582.708.53 1.777.918 3.043.918 1.266 0 2.335-.387 3.043-.918.707-.53.957-1.11.957-1.582 0-.303-.103-.651-.365-1.002.824.232 1.615.54 2.364.917Zm-8.167-3.97-2-3-1.664 1.11 2 3 1.664-1.11Zm6.336-3-2 3 1.664 1.11 2-3-1.664-1.11Z" clip-rule="evenodd"/>
</symbol>
<symbol id="adv-pin-spark" viewBox="0 0 24 25">
	<path fill="#B9DDFF" fill-rule="evenodd" d="M11.78 5.915c-1.211 1.169-.822 3.605 1.166 3.96a1.567 1.567 0 0 1 1.243 1.227l.023.108c.221 1.042.967 1.638 1.788 1.787-.225 2.025-1.288 4.004-2.461 5.505a12.222 12.222 0 0 1-2.066 2.104 5.82 5.82 0 0 1-.986.632c-.305.15-.64.262-.964.262-.326 0-.66-.113-.966-.262a5.828 5.828 0 0 1-.985-.632 12.226 12.226 0 0 1-2.065-2.104C4.183 16.809 3 14.51 3 12.222c0-1.083.253-2.15.74-3.11a6.66 6.66 0 0 1 2.052-2.405 6.41 6.41 0 0 1 2.9-1.152 6.343 6.343 0 0 1 3.088.36Z" clip-rule="evenodd"/>
	<path fill="#0171DD" fill-rule="evenodd" d="M16.038 4.28c.222-1.035 1.677-1.042 1.91-.008l.01.047a2.82 2.82 0 0 0 .783 1.46c.4.396.909.66 1.46.756 1.065.19 1.065 1.74 0 1.929a2.786 2.786 0 0 0-2.226 2.142l-.027.122c-.233 1.034-1.688 1.028-1.91-.009l-.023-.104a2.8 2.8 0 0 0-.785-1.419 2.738 2.738 0 0 0-1.432-.734c-1.064-.186-1.064-1.736 0-1.924a2.738 2.738 0 0 0 1.428-.73 2.8 2.8 0 0 0 .786-1.412l.017-.076.009-.04Zm-8.306 9.488a2.5 2.5 0 1 1 3.536-3.536 2.5 2.5 0 0 1-3.536 3.536Z" clip-rule="evenodd"/>
</symbol>
<symbol id="adv-rub" viewBox="0 0 24 25">
	<path fill="#B9DDFF" d="M20 10.5V7.364c0-1.194-.499-2.34-1.6-2.802C17.164 4.042 15.125 3.5 12 3.5c-3.124 0-5.163.542-6.4 1.062C4.498 5.024 4 6.17 4 7.364V10.5c0 8.816 5.83 10.637 7.21 10.945.194.043.39.055.589.055h.255c.297 0 .59-.027.873-.114C14.515 20.898 20 18.624 20 10.5Z"/>
	<path fill="#B9DDFF" stroke="#0171DD" stroke-width="2" d="M8 11.5h5a2 2 0 1 0 0-4h-3v7m0 3v-3m0 0H8m2 0h4"/>
</symbol>
<symbol id="adv-smile" viewBox="0 0 24 25">
	<path fill="#B9DDFF" fill-rule="evenodd" d="M12 3.5a9 9 0 1 1 0 18 9 9 0 0 1 0-18Z" clip-rule="evenodd"/>
	<path fill="#0171DD" fill-rule="evenodd" d="M10 9a1.5 1.5 0 1 1-3 0 1.5 1.5 0 0 1 3 0Zm7 0a1.5 1.5 0 1 1-3 0 1.5 1.5 0 0 1 3 0Zm-5 7.5a4 4 0 0 1-4-4H6a6 6 0 0 0 12 0h-2a4 4 0 0 1-4 4Z" clip-rule="evenodd"/>
</symbol>
<symbol id="angle-left" viewBox="0 0 24 24">
	<path fill="#2E2F33" fill-rule="evenodd" d="m14 18.414-.707-.707-4.647-4.646a1.5 1.5 0 0 1 0-2.122l4.647-4.646.707-.707L15.414 7l-.707.707L10.414 12l4.293 4.293.707.707L14 18.414Z" clip-rule="evenodd"/>
</symbol>
<symbol id="angle-right" viewBox="0 0 24 24">
	<path d="m10 5.586.707.707 4.646 4.646a1.5 1.5 0 0 1 0 2.122l-4.646 4.646-.707.707L8.586 17l.707-.707L13.586 12 9.293 7.707 8.586 7 10 5.586Z" clip-rule="evenodd"/>
</symbol>
<symbol id="appointment" viewBox="0 0 25 24">
	<path fill="#C8CED4" fill-rule="evenodd" d="M8 3a4.5 4.5 0 0 0-4.5 4.5v9A4.5 4.5 0 0 0 8 21h9a4.5 4.5 0 0 0 4.5-4.5v-9A4.5 4.5 0 0 0 17 3H8ZM5.5 7.5A2.5 2.5 0 0 1 8 5h9a2.5 2.5 0 0 1 2.5 2.5v9A2.5 2.5 0 0 1 17 19H8a2.5 2.5 0 0 1-2.5-2.5v-9Zm6 8.5v-3h-3v-2h3V8h2v3h3v2h-3v3h-2Z" clip-rule="evenodd"/>
</symbol>
<symbol id="attachment" viewBox="0 0 24 24">
	<path fill="#0171DD" fill-rule="evenodd" d="M6.536 8.826A7.13 7.13 0 1 0 16.619 18.91l2.167-2.168-1.414-1.414-2.168 2.167a5.13 5.13 0 0 1-7.254-7.254l4.334-4.335a3.087 3.087 0 0 1 4.365 4.365l-4.334 4.335a1.043 1.043 0 1 1-1.476-1.476l4.335-4.334-1.414-1.414-4.335 4.334a3.043 3.043 0 0 0 4.304 4.304l4.335-4.335a5.087 5.087 0 0 0-7.194-7.193L6.536 8.826Z" clip-rule="evenodd"/>
</symbol>
<symbol id="auth-call" viewBox="0 0 16 16">
	<path fill="#7F8895" fill-rule="evenodd" d="M13 8a5 5 0 0 0-5-5V1a7 7 0 0 1 7 7h-2Zm-1.667 6C7.333 14 2 8.667 2 4.667V4.09A2.09 2.09 0 0 1 4.09 2c.37 0 .723.147.985.408l.983.983a2 2 0 0 1 .138 2.676L5.5 7c0 1 2.5 3.5 3.5 3.5l.933-.696a2 2 0 0 1 2.676.138l.983.983c.261.262.408.616.408.985A2.09 2.09 0 0 1 11.91 14h-.577ZM8 7a1 1 0 0 1 1 1h2a3 3 0 0 0-3-3v2Z" clip-rule="evenodd"/>
</symbol>
<symbol id="auth-chat-bot" viewBox="0 0 16 16">
	<path fill="#7F8895" fill-rule="evenodd" d="M8 15a7.01 7.01 0 0 0 1.824-.24 3 3 0 0 1-1.32-4.424l2-3a3 3 0 0 1 4.367-.681 7 7 0 1 0-13.033 4.67l-.788 2.359a1 1 0 0 0 1.265 1.265l2.361-.787C5.665 14.697 6.797 15 8 15Zm5.555-6.832a1 1 0 0 1 .277 1.387L12.868 11H15a1 1 0 0 1 .832 1.555l-2 3a1 1 0 0 1-1.664-1.11L13.132 13H11a1 1 0 0 1-.832-1.555l2-3a1 1 0 0 1 1.387-.277Z" clip-rule="evenodd"/>
</symbol>
<symbol id="auth-sale" viewBox="0 0 16 16">
	<path fill="#7F8895" fill-rule="evenodd" d="M4 2a3 3 0 0 0-3 3v6a3 3 0 0 0 3 3h8a3 3 0 0 0 3-3V5a3 3 0 0 0-3-3H4Zm2.75 3.5a1.25 1.25 0 1 1-2.5 0 1.25 1.25 0 0 1 2.5 0Zm-1.043 6.207 6-6-1.414-1.414-6 6 1.414 1.414Zm4.793.043a1.25 1.25 0 1 0 0-2.5 1.25 1.25 0 0 0 0 2.5Z" clip-rule="evenodd"/>
</symbol>
<symbol id="backspace" viewBox="0 0 25 24">
	<path fill="#36383E" fill-rule="evenodd" d="M7.97 6.474A3.5 3.5 0 0 1 10.824 5H18a2.5 2.5 0 0 1 2.5 2.5v9A2.5 2.5 0 0 1 18 19h-7.176a3.5 3.5 0 0 1-2.854-1.474l-3.102-4.368a2 2 0 0 1 0-2.316L7.97 6.474ZM10.824 3a5.5 5.5 0 0 0-4.485 2.316L3.238 9.684a4 4 0 0 0 0 4.632l3.101 4.368A5.5 5.5 0 0 0 10.824 21H18a4.5 4.5 0 0 0 4.5-4.5v-9A4.5 4.5 0 0 0 18 3h-7.176ZM9.293 9.207 12.086 12l-2.793 2.793 1.414 1.414 2.793-2.793 2.793 2.793 1.414-1.414L14.914 12l2.793-2.793-1.414-1.414-2.793 2.793-2.793-2.793-1.414 1.414Z" clip-rule="evenodd"/>
</symbol>
<symbol id="call-in" viewBox="0 0 24 24">
	<path fill="#B8D9F7" d="M17 21C10 21 3 14 3 7v-.866A3.134 3.134 0 0 1 6.134 3c.555 0 1.086.22 1.478.612l1.372 1.372a3 3 0 0 1 .105 4.132l-1.46 1.616a.393.393 0 0 0-.11.333c.29 1.562 3.854 5.126 5.416 5.416a.393.393 0 0 0 .333-.11l1.616-1.46a3 3 0 0 1 4.132.105l1.372 1.372c.392.392.612.923.612 1.478A3.134 3.134 0 0 1 17.866 21H17Z"/>
	<path fill="#0171DD" fill-rule="evenodd" d="M6.134 3c-.865 0-1.649.35-2.216.918l5.184 5.184a3 3 0 0 0-.118-4.118L7.612 3.612A2.09 2.09 0 0 0 6.134 3Zm12.882 12.016a3 3 0 0 0-4.118-.118l5.184 5.184c.567-.567.918-1.35.918-2.216a2.09 2.09 0 0 0-.612-1.478l-1.372-1.372Zm-.723-10.723L15 7.586V5h-2v5a1 1 0 0 0 1 1h5V9h-2.586l3.293-3.293-1.414-1.414Z" clip-rule="evenodd"/>
</symbol>
<symbol id="call-out" viewBox="0 0 24 25">
	<path fill="#B8D9F7" d="M17 21.5c-7 0-14-7-14-14v-.866A3.134 3.134 0 0 1 6.134 3.5c.555 0 1.086.22 1.478.612l1.372 1.372a3 3 0 0 1 .105 4.132l-1.46 1.616a.393.393 0 0 0-.11.333c.29 1.562 3.854 5.126 5.416 5.416a.393.393 0 0 0 .333-.11l1.616-1.46a3 3 0 0 1 4.132.105l1.372 1.372c.392.392.612.923.612 1.478a3.134 3.134 0 0 1-3.134 3.134H17Z"/>
	<path fill="#0171DD" fill-rule="evenodd" d="M6.134 3.5c-.865 0-1.649.35-2.216.918l5.184 5.184a3 3 0 0 0-.118-4.118L7.612 4.112A2.09 2.09 0 0 0 6.134 3.5Zm12.882 12.016a3 3 0 0 0-4.118-.118l5.184 5.184c.567-.567.918-1.35.918-2.216a2.09 2.09 0 0 0-.612-1.478l-1.372-1.372Zm-4.309-4.309L18 7.914V10.5h2v-5a1 1 0 0 0-1-1h-5v2h2.586l-3.293 3.293 1.414 1.414Z" clip-rule="evenodd"/>
</symbol>
<symbol id="camera" viewBox="0 0 24 24">
	<g clip-path="url(#camera-a)">
		<path fill="#B0B0B0" fill-opacity=".1" d="M17.942 4.037H6.058a9.99 9.99 0 0 0-1.066.92l3.024 3.024h7.968l3.024-3.024a9.987 9.987 0 0 0-1.066-.92ZM16.02 15.984l3.023 3.024a9.99 9.99 0 0 0 .92-1.066V6.058a9.993 9.993 0 0 0-.92-1.066l-3.024 3.024v7.968ZM8.066 8.03h7.868L12 11.966 8.066 8.03ZM15.97 15.934 12.034 12l3.934-3.934v7.868ZM8.066 15.97 12 12.034l3.934 3.934H8.066ZM11.965 12 8.03 15.934V8.066L11.965 12ZM7.98 8.016 4.958 4.992a9.99 9.99 0 0 0-.92 1.066v11.884c.281.377.589.733.92 1.066l3.024-3.024V8.016ZM3.038 7.705v8.59c.268.557.586 1.086.949 1.58V6.125a9.932 9.932 0 0 0-.949 1.58ZM2.988 16.189V7.811A9.898 9.898 0 0 0 2.065 12c0 1.497.33 2.916.923 4.189Z"/>
		<path fill="#B0B0B0" fill-opacity=".1" d="M2.988 4.037H2.04v7.251c.09-1.28.421-2.492.948-3.594V4.037ZM3.987 4.037h-.949V7.59c.27-.547.588-1.065.949-1.55V4.037ZM3.038 3.987v-.913l.913.913h-.913ZM3.987 3.038v.913l-.913-.913h.913ZM4.037 4.072v1.903c.272-.36.568-.7.885-1.018l-.885-.885ZM4.072 4.037l.885.885a10.04 10.04 0 0 1 1.018-.885H4.072ZM7.591 3.038H4.037v.949H6.04a9.987 9.987 0 0 1 1.55-.949ZM4.037 2.988h3.657a9.926 9.926 0 0 1 3.594-.948H4.037v.948Z"/>
		<path fill="#B0B0B0" fill-opacity=".1" d="M7.705 3.038a9.932 9.932 0 0 0-1.58.949h11.75a9.932 9.932 0 0 0-1.58-.949h-8.59ZM7.811 2.988h8.378A9.898 9.898 0 0 0 12 2.065c-1.497 0-2.916.33-4.189.923Z"/>
		<path fill="#B0B0B0" fill-opacity=".1" d="M19.963 2.988V2.04h-7.251c1.28.09 2.492.421 3.594.948h3.657ZM19.963 3.987v-.949H16.41c.547.27 1.065.588 1.55.949h2.004ZM20.013 3.038h.913l-.913.913v-.913ZM20.962 3.987h-.913l.913-.913v.913ZM19.043 4.922l.885-.885h-1.903c.36.272.7.568 1.018.885ZM19.963 4.072l-.885.885c.317.319.613.659.885 1.018V4.072ZM20.962 7.591V4.037h-.949V6.04c.361.485.68 1.003.949 1.55ZM21.012 4.037v3.657a9.925 9.925 0 0 1 .948 3.594V4.037h-.948Z"/>
		<path fill="#B0B0B0" fill-opacity=".1" d="M20.962 7.705a9.938 9.938 0 0 0-.949-1.58v11.75c.363-.494.681-1.023.949-1.58v-8.59ZM21.012 7.811v8.378A9.898 9.898 0 0 0 21.935 12a9.898 9.898 0 0 0-.923-4.189Z"/>
		<path fill="#B0B0B0" fill-opacity=".1" d="M21.012 19.963h.948v-7.251a9.924 9.924 0 0 1-.948 3.594v3.657ZM20.013 19.963h.949V16.41a9.987 9.987 0 0 1-.949 1.55v2.004ZM20.962 20.013v.913l-.913-.913h.913ZM20.013 20.962v-.913l.913.913h-.913ZM16.409 20.962h3.554v-.949H17.96a9.987 9.987 0 0 1-1.55.949ZM19.928 19.963l-.885-.885a10.05 10.05 0 0 1-1.018.885h1.903ZM19.963 19.928v-1.903c-.272.36-.568.7-.885 1.018l.885.885ZM19.963 21.012h-3.657a9.924 9.924 0 0 1-3.594.948h7.251v-.948Z"/>
		<path fill="#B0B0B0" fill-opacity=".1" d="M12 21.935a9.898 9.898 0 0 0 4.189-.923H7.811a9.898 9.898 0 0 0 4.189.923ZM17.875 20.013H6.125c.494.363 1.023.681 1.58.949h8.59a9.938 9.938 0 0 0 1.58-.949ZM15.984 16.02H8.016l-3.024 3.023c.333.331.69.639 1.066.92h11.884a9.99 9.99 0 0 0 1.066-.92l-3.024-3.024Z"/>
		<path fill="#B0B0B0" fill-opacity=".1" d="M4.037 21.012v.948h7.251a9.925 9.925 0 0 1-3.594-.948H4.037ZM4.037 20.013v.949H7.59a9.987 9.987 0 0 1-1.55-.949H4.037ZM3.038 20.013h.913l-.913.913v-.913ZM3.987 20.962h-.913l.913-.913v.913ZM4.072 19.963h1.903a10.053 10.053 0 0 1-1.018-.885l-.885.885ZM4.037 18.025v1.903l.885-.885a10.038 10.038 0 0 1-.885-1.018ZM3.038 19.963h.949V17.96a9.987 9.987 0 0 1-.949-1.55v3.554ZM2.04 19.963h.948v-3.657a9.925 9.925 0 0 1-.948-3.594v7.251Z"/>
		<path fill="#B0B0B0" fill-rule="evenodd" d="m0 .035 2.988 2.989v.963H1.99v16.026h.998v.963L0 23.965.035 24l2.989-2.988h.963v.998h16.026v-.998h.963L23.965 24l.035-.035-2.988-2.989v-.963h.998V3.987h-.998v-.963L24 .035 23.965 0l-2.989 2.988h-.963V1.99H3.987v.998h-.963L.035 0 0 .035Zm3.038 3.952v-.913l.913.913h-.913Zm0 .05h.949V6.04a9.987 9.987 0 0 0-.949 1.55V4.037Zm-.05 3.657V4.037H2.04v7.251c.09-1.28.421-2.492.948-3.594Zm-.948 5.018v7.251h.948v-3.657a9.925 9.925 0 0 1-.948-3.594Zm.948 3.477V7.811A9.898 9.898 0 0 0 2.065 12c0 1.497.33 2.916.923 4.189Zm.05.22v3.554h.949V17.96a9.987 9.987 0 0 1-.949-1.55Zm.999 1.533c.281.377.589.733.92 1.066l3.024-3.024V8.016L4.957 4.992a9.99 9.99 0 0 0-.92 1.066v11.884Zm-.05-11.817a9.932 9.932 0 0 0-.949 1.58v8.59c.268.557.586 1.086.949 1.58V6.125Zm.05-.15c.272-.36.568-.7.885-1.018l-.885-.885v1.903Zm.955-1.018 3.024 3.024h7.968l3.024-3.024a9.987 9.987 0 0 0-1.066-.92H6.058a9.99 9.99 0 0 0-1.066.92Zm.983-.92H4.072l.885.885a10.04 10.04 0 0 1 1.018-.885Zm.15-.05h11.75a9.932 9.932 0 0 0-1.58-.949h.114c.547.27 1.065.588 1.55.949h2.004v-.949H16.41a9.206 9.206 0 0 0-.103-.05h3.657V2.04h-7.251c1.28.09 2.492.421 3.594.948h-.117A9.898 9.898 0 0 0 12 2.065c-1.497 0-2.916.33-4.189.923h8.378l.106.05h-8.59a9.932 9.932 0 0 0-1.58.949Zm1.466-.949H4.037v.949H6.04a9.987 9.987 0 0 1 1.55-.949Zm10.434.999c.36.272.7.568 1.018.885l.885-.885h-1.903Zm1.018.955-3.024 3.024v7.968l3.024 3.024a9.99 9.99 0 0 0 .92-1.066V6.058a9.993 9.993 0 0 0-.92-1.066Zm.92.983a10.053 10.053 0 0 0-.885-1.018l.885-.885v1.903Zm.05 11.9c.363-.494.681-1.023.949-1.58v-8.59a9.938 9.938 0 0 0-.949-1.58v11.75Zm.999-1.686A9.898 9.898 0 0 0 21.935 12a9.898 9.898 0 0 0-.923-4.189v8.378Zm-.05.22a9.987 9.987 0 0 1-.949 1.55v2.004h.949V16.41Zm.05-.103v3.657h.948v-7.251a9.924 9.924 0 0 1-.948 3.594Zm.948-5.018V4.037h-.948v3.657a9.925 9.925 0 0 1 .948 3.594Zm-.998-3.697V4.037h-.949V6.04c.361.485.68 1.003.949 1.55Zm-.999 10.434c-.272.36-.568.7-.885 1.018l.885.885v-1.903Zm-.955 1.018-3.024-3.024H8.016l-3.024 3.024c.333.331.69.639 1.066.92h11.884a9.99 9.99 0 0 0 1.066-.92Zm-.983.92c.36-.272.7-.568 1.018-.885l.885.885h-1.903Zm-11.9.05c.494.363 1.023.681 1.58.949h8.59a9.938 9.938 0 0 0 1.58-.949H6.125Zm1.686.999a9.898 9.898 0 0 0 4.189.923 9.898 9.898 0 0 0 4.189-.923H7.811Zm-.22-.05a9.987 9.987 0 0 1-1.55-.949H4.037v.949H7.59Zm.103.05H4.037v.948h7.251a9.925 9.925 0 0 1-3.594-.948Zm5.018.948h7.251v-.948h-3.657a9.924 9.924 0 0 1-3.594.948Zm3.697-.998h3.554v-.949H17.96a9.987 9.987 0 0 1-1.55.949Zm-10.434-.999a10.053 10.053 0 0 1-1.018-.885l-.885.885h1.903ZM11.288 2.04H4.037v.948h3.657a9.926 9.926 0 0 1 3.594-.948ZM4.922 19.043a10.038 10.038 0 0 1-.885-1.018v1.903l.885-.885Zm-1.884.97h.913l-.913.913v-.913Zm.949.949h-.913l.913-.913v.913Zm16.026 0v-.913l.913.913h-.913Zm.949-.949v.913l-.913-.913h.913Zm0-16.026h-.913l.913-.913v.913Zm-.949-.949h.913l-.913.913v-.913Zm-16.026 0v.913l-.913-.913h.913ZM12 11.965 8.066 8.03h7.868L12 11.965Zm-3.934 4.004L12 12.035l3.934 3.934H8.066Zm-.035-.035L11.965 12 8.03 8.066v7.868ZM12.035 12l3.934 3.934V8.066L12.035 12Z" clip-rule="evenodd"/>
		<path fill="#B0B0B0" d="m16.189 2.988.106.05h.114a9.206 9.206 0 0 0-.103-.05h-.117Z"/>
		<path fill="#2E2F33" fill-rule="evenodd" d="M9.927 3a2.5 2.5 0 0 0-2.236 1.382L6.882 6H6.5A4.5 4.5 0 0 0 2 10.5v6A4.5 4.5 0 0 0 6.5 21h11a4.5 4.5 0 0 0 4.5-4.5v-6A4.5 4.5 0 0 0 17.5 6h-.382l-.809-1.618A2.5 2.5 0 0 0 14.073 3H9.927ZM9.48 5.276A.5.5 0 0 1 9.927 5h4.146a.5.5 0 0 1 .447.276l1.086 2.171A1 1 0 0 0 16.5 8h1a2.5 2.5 0 0 1 2.5 2.5v6a2.5 2.5 0 0 1-2.5 2.5h-11A2.5 2.5 0 0 1 4 16.5v-6A2.5 2.5 0 0 1 6.5 8h1a1 1 0 0 0 .894-.553l1.086-2.17ZM12 9a4 4 0 1 0 0 8 4 4 0 0 0 0-8Zm-1.414 2.586a2 2 0 1 1 2.828 2.828 2 2 0 0 1-2.828-2.828Z" clip-rule="evenodd"/>
	</g>

</symbol>
<symbol id="chat" viewBox="0 0 25 24">
	<path fill="#C8CED4" fill-rule="evenodd" d="M4.834 12a8 8 0 1 1 4.363 7.128l-.31-.159-.341.069-3.438.687.688-3.437.068-.342-.158-.31A7.962 7.962 0 0 1 4.834 12Zm8-10c-5.523 0-10 4.477-10 10 0 1.509.334 2.942.934 4.227l-.915 4.577A1 1 0 0 0 4.03 21.98l4.577-.916c1.285.6 2.718.935 4.227.935 5.522 0 10-4.477 10-10s-4.478-10-10-10Zm-4.65 11.35a1.35 1.35 0 1 0 0-2.7 1.35 1.35 0 0 0 0 2.7Zm4.65 0a1.35 1.35 0 1 0 0-2.7 1.35 1.35 0 0 0 0 2.7Zm6-1.35a1.35 1.35 0 1 1-2.7 0 1.35 1.35 0 0 1 2.7 0Z" clip-rule="evenodd"/>
</symbol>
<symbol id="check" viewBox="0 0 16 16">
	<path stroke="#fff" stroke-width="2" d="m3.5 8 3 3 6-6"/>
</symbol>
<symbol id="circle-tick" viewBox="0 0 24 24">
	<path fill="#fff" fill-rule="evenodd" d="M19 12a7 7 0 1 1-14 0 7 7 0 0 1 14 0Zm2 0a9 9 0 1 1-18 0 9 9 0 0 1 18 0Zm-9.443 3.207 5-5-1.414-1.414-4.293 4.293-2.293-2.293-1.414 1.414 3 3 .707.707.707-.707Z" clip-rule="evenodd"/>
</symbol>
<symbol id="close" viewBox="0 0 24 24">
	<path d="m12 13.418 4.584 4.585 1.414-1.414-4.584-4.585 4.584-4.586-1.414-1.414L12 10.59 7.416 6.004 6 7.418l4.585 4.586L6 16.588l1.415 1.414L12 13.418Z" clip-rule="evenodd"/>
</symbol>
<symbol id="copy" viewBox="0 0 24 24">
	<path fill="#2E2F33" fill-rule="evenodd" d="M3 7.5A4.5 4.5 0 0 1 7.5 3h5a4.5 4.5 0 0 1 4.032 2.5H14a2.489 2.489 0 0 0-1.5-.5h-5A2.5 2.5 0 0 0 5 7.5v5c0 .563.186 1.082.5 1.5v2.532A4.5 4.5 0 0 1 3 12.5v-5Zm8.5-.5A4.5 4.5 0 0 0 7 11.5v5a4.5 4.5 0 0 0 4.5 4.5h5a4.5 4.5 0 0 0 4.5-4.5v-5A4.5 4.5 0 0 0 16.5 7h-5ZM9 11.5A2.5 2.5 0 0 1 11.5 9h5a2.5 2.5 0 0 1 2.5 2.5v5a2.5 2.5 0 0 1-2.5 2.5h-5A2.5 2.5 0 0 1 9 16.5v-5Z" clip-rule="evenodd"/>
</symbol>
<symbol id="faq" viewBox="0 0 24 24">
	<path fill="#B8D9F7" fill-rule="evenodd" d="M9.33 16.968a7 7 0 0 0 7.638-7.638 6.002 6.002 0 0 1 3.471 8.206l.55 2.746a.6.6 0 0 1-.707.706l-2.746-.549a6.003 6.003 0 0 1-8.206-3.47Z" clip-rule="evenodd"/>
	<path fill="#0171DD" fill-rule="evenodd" d="M3 10a7 7 0 1 1 4.041 6.346l-3.204.64a.7.7 0 0 1-.823-.823l.64-3.204A6.976 6.976 0 0 1 3 10Zm5.927-4.442a2.98 2.98 0 0 1 1.943.27l.004.002a3.003 3.003 0 0 1-1.37 5.67 1 1 0 0 1-.007-2 1.003 1.003 0 0 0 .46-1.893.98.98 0 0 0-1.194.24 1 1 0 0 1-1.526-1.292 2.98 2.98 0 0 1 1.69-.997ZM10.5 13.5a1 1 0 1 1-2 0 1 1 0 0 1 2 0Z" clip-rule="evenodd"/>
</symbol>
<symbol id="icon-logo" viewBox="0 0 25 24">
	<path fill="#0171DD" fill-rule="evenodd" d="M4.167 4h5.5c0 5.799 4.7 10.5 10.5 10.5V20c-8.837 0-16-7.163-16-16Zm11.75 0c0 .76-.028 1.302-.104 1.7-.073.39-.179.569-.278.668-.1.1-.277.205-.668.279-.399.075-.94.103-1.7.103v1.5c.76 0 1.302.028 1.7.103.39.074.568.18.668.279.1.1.205.277.278.668.075.398.104.94.104 1.7h1.5c0-.76.028-1.302.103-1.7.074-.39.18-.569.279-.668.099-.1.277-.205.668-.279.398-.075.94-.103 1.7-.103v-1.5c-.76 0-1.302-.028-1.7-.103-.391-.074-.569-.18-.668-.279-.1-.1-.205-.277-.279-.668-.075-.398-.103-.94-.103-1.7h-1.5Z" clip-rule="evenodd"/>
</symbol>
<symbol id="log-out" viewBox="0 0 24 24">
	<path fill="#2E2F33" fill-rule="evenodd" d="M6.5 3A4.5 4.5 0 0 0 2 7.5v9A4.5 4.5 0 0 0 6.5 21h4a4.5 4.5 0 0 0 4.5-4.5V15h-2v1.5a2.5 2.5 0 0 1-2.5 2.5h-4A2.5 2.5 0 0 1 4 16.5v-9A2.5 2.5 0 0 1 6.5 5h4A2.5 2.5 0 0 1 13 7.5V9h2V7.5A4.5 4.5 0 0 0 10.5 3h-4Zm11.293 4.793 3.5 3.5L22 12l-.707.707-3.5 3.5-1.414-1.414L18.172 13H7.586v-2h10.586l-1.793-1.793 1.414-1.414Z" clip-rule="evenodd"/>
</symbol>
<symbol id="mic-off" viewBox="0 0 40 40">
	<path d="M20 1.667a6.67 6.67 0 0 0-6.498 5.169L26.078 19.41c.378-.837.589-1.766.589-2.744V8.333A6.667 6.667 0 0 0 20 1.667ZM13.334 15.69v.977a6.667 6.667 0 0 0 7.58 6.604l2.714 2.714A9.998 9.998 0 0 1 10 16.667V15H6.667v1.667a13.334 13.334 0 0 0 11.667 13.228v3.438h-6.667v3.334h16.666v-3.334h-6.666v-3.438a13.334 13.334 0 0 0 4.476-1.395l5.179 5.178 2.357-2.356L7.845 5.488 5.488 7.845l7.846 7.845ZM33.334 16.667c0 2.74-.844 5.393-2.388 7.613l-2.407-2.408A10 10 0 0 0 30 16.667V15h3.334v1.667Z"/>
</symbol>
<symbol id="notifications" viewBox="0 0 24 24">
	<path fill="#2E2F33" fill-rule="evenodd" d="M12 2a2.5 2.5 0 0 0-2.499 2.433C6 5.81 6 10 6 10v2.197A5.954 5.954 0 0 1 5 15.5l-.871 1.307A.768.768 0 0 0 4.768 18h14.464a.768.768 0 0 0 .64-1.193L19 15.5a5.954 5.954 0 0 1-1-3.303V10s0-4.19-3.5-5.567A2.5 2.5 0 0 0 12 2Zm0 20a4.001 4.001 0 0 1-3.71-2.5h7.42A4.001 4.001 0 0 1 12 22Z" clip-rule="evenodd"/>
</symbol>
<symbol id="phone" viewBox="0 0 24 24">
	<path d="M17 21C11 21 3 13 3 7V5.35A2.35 2.35 0 0 1 5.35 3c.416 0 .815.165 1.109.459l2.343 2.343a2 2 0 0 1 .213 2.577l-1.05 1.47c-.302.423-.467.943-.235 1.41.79 1.585 3.426 4.22 5.011 5.01.467.233.987.068 1.41-.235l1.47-1.05a2 2 0 0 1 2.577.214l2.343 2.343c.294.294.459.692.459 1.108A2.35 2.35 0 0 1 18.65 21H17Z"/>
</symbol>
<symbol id="reply" viewBox="0 0 24 24">
	<path fill="#2E2F33" fill-rule="evenodd" d="M20.995 13.5V20h-2v-6.5a2.5 2.5 0 0 0-2.5-2.5H6.84l3.308 3.291-1.41 1.418-5.026-5L3 10l.712-.709 5.025-5 1.411 1.418L6.84 9h9.655a4.5 4.5 0 0 1 4.5 4.5Z" clip-rule="evenodd"/>
</symbol>
<symbol id="send" viewBox="0 0 24 24">
	<path fill="#0171DD" d="M20.1 10.566 4.434 3.1c-.775-.37-1.624.345-1.393 1.172L4.31 8.82c.12.427.421.779.825.962l3.862 1.756a.5.5 0 0 1 0 .91l-3.862 1.756a1.5 1.5 0 0 0-.824.962L3.04 19.725c-.23.827.62 1.541 1.394 1.171l15.667-7.48a1.58 1.58 0 0 0-.001-2.85Z"/>
</symbol>
<symbol id="speakers" viewBox="0 0 40 40">
	<path d="M7.5 13.333h1.666l5.822-7.277A2.814 2.814 0 0 1 20 7.814v24.372a2.814 2.814 0 0 1-5.012 1.758l-5.822-7.277H7.5A4.167 4.167 0 0 1 3.333 22.5v-5A4.167 4.167 0 0 1 7.5 13.333ZM31.826 13.842a13.333 13.333 0 0 0-4.184-4.768l1.91-2.732a16.667 16.667 0 0 1-.007 27.32l-1.909-2.732a13.332 13.332 0 0 0 4.19-17.088Z"/>
	<path d="M23.82 14.537a6.666 6.666 0 0 1-.008 10.932l1.906 2.735a9.999 9.999 0 0 0 .012-16.4l-1.91 2.732Z"/>
</symbol>
<symbol id="star" viewBox="0 0 16 16">
	<path d="m7.987 11.832-3.423 2.092a.504.504 0 0 1-.751-.553l.992-3.953-2.88-2.24a.504.504 0 0 1 .269-.9l3.766-.311 1.57-3.662a.504.504 0 0 1 .927.001l1.557 3.661 3.792.311a.504.504 0 0 1 .268.901l-2.89 2.24.99 3.955a.504.504 0 0 1-.752.552l-3.435-2.094Z" clip-rule="evenodd"/>
</symbol>
<symbol id="tick-12" viewBox="0 0 12 12">
	<path fill="#8CC8FF" fill-rule="evenodd" d="m8.121 4.075-.538.523-4 3.89-.523.51-.523-.51-2-1.95L0 6.013 1.047 4.94l.537.523 1.477 1.44 3.477-3.38L7.075 3l1.046 1.075Z" clip-rule="evenodd"/>
</symbol>
</svg>