<svg width="16" height="16" viewBox="0 0 16 16" fill="none" xmlns="http://www.w3.org/2000/svg">
<path d="M0 8C0 3.5816 3.5808 0 8 0C12.4176 0 16 3.5816 16 8C16 12.4184 12.4176 16 8 16C3.5808 16 0 12.4184 0 8Z" fill="#FC3F1D"/>
<path d="M9.094 4.53285H8.3548C6.9996 4.53285 6.2868 5.21925 6.2868 6.23125C6.2868 7.37525 6.7796 7.91125 7.7916 8.59845L8.6276 9.16165L6.2252 12.7512H4.43L6.586 9.54005C5.346 8.65125 4.65 7.78805 4.65 6.32805C4.65 4.49765 5.926 3.24805 8.346 3.24805H10.7484V12.7424H9.094V4.53285Z" fill="white"/>
</svg>
