<svg width="16" height="17" viewBox="0 0 16 17" fill="none" xmlns="http://www.w3.org/2000/svg">
<path d="M16 8.5C16 12.9183 12.4183 16.5 8 16.5C3.58172 16.5 0 12.9183 0 8.5C0 4.08172 3.58172 0.5 8 0.5C12.4183 0.5 16 4.08172 16 8.5Z" fill="#29B24A"/>
<path d="M11.9268 10.029C9.00318 10.0435 8.65761 11.8261 8.5 13.3334V14H7.5V13.3334C7.34238 11.8261 6.99685 10.0435 4.17356 10.029C3.70064 9.04347 3.5 8.24638 3.5 7.34784C3.5 5.10151 5.32008 3 8.01431 3C10.7086 3 12.5 5.08693 12.5 7.3624C12.5 8.24638 12.414 9.04347 11.9268 10.029Z" fill="white"/>
</svg>
