<svg width="24" height="25" viewBox="0 0 24 25" fill="none" xmlns="http://www.w3.org/2000/svg">
<path fill-rule="evenodd" clip-rule="evenodd" d="M3 8.16353V19C3 20.3807 4.11929 21.5 5.5 21.5H7V16.5H10V21.5H11.5C12.8807 21.5 14 20.3807 14 19V8.16353C14 7.74092 13.8217 7.33791 13.509 7.05362L9.17267 3.1115C8.79125 2.76475 8.20875 2.76475 7.82733 3.1115L3.49099 7.05362C3.17828 7.33791 3 7.74092 3 8.16353ZM11 8.49998H6V10.5H11V8.49998ZM6 12.5H11V14.5H6V12.5ZM16 12.5H19V14.5H16V12.5ZM19 16.5H16V18.5H19V16.5Z" fill="#B9DDFF"/>
<path fill-rule="evenodd" clip-rule="evenodd" d="M11 8.5H6V10.5H11V8.5ZM18.5 21.5H11.5C12.8807 21.5 14 20.3807 14 19V10.5H18.5C19.8807 10.5 21 11.6193 21 13V19C21 20.3807 19.8807 21.5 18.5 21.5ZM19 12.5H16V14.5H19V12.5ZM16 16.5H19V18.5H16V16.5ZM10 16.5H7V21.5H10V16.5ZM6 12.5H11V14.5H6V12.5Z" fill="#0171DD"/>
</svg>
