<svg width="24" height="25" viewBox="0 0 24 25" fill="none" xmlns="http://www.w3.org/2000/svg">
<path fill-rule="evenodd" clip-rule="evenodd" d="M11.7802 5.91454C10.5688 7.08397 10.9582 9.51986 12.9458 9.87514C13.563 9.98658 14.0542 10.4704 14.1891 11.1023L14.212 11.2098C14.4334 12.252 15.1791 12.8485 15.9999 12.9967C15.7746 15.0222 14.7121 17.0006 13.5388 18.5017C12.9353 19.2864 12.2419 19.9929 11.4735 20.6059C11.166 20.8497 10.8356 21.0614 10.4873 21.2378C10.1819 21.3873 9.84727 21.5 9.52278 21.5C9.19702 21.5 8.86362 21.3873 8.55695 21.2378C8.20911 21.0613 7.87918 20.8496 7.57202 20.6059C6.80372 19.9929 6.11025 19.2864 5.50673 18.5017C4.18332 16.8092 2.99988 14.5096 2.99988 12.2219C2.99943 11.1389 3.25309 10.0718 3.73925 9.11157C4.22541 8.15134 4.92967 7.32642 5.79201 6.70709C6.65436 6.08775 7.64924 5.69236 8.6919 5.55459C9.73456 5.41682 10.7941 5.54076 11.7802 5.91585V5.91454Z" fill="#B9DDFF"/>
<path fill-rule="evenodd" clip-rule="evenodd" d="M16.0376 4.27973C16.2602 3.24454 17.7151 3.2382 17.9477 4.27211L17.9577 4.31905C18.0674 4.87484 18.3404 5.38397 18.7407 5.77952C19.141 6.17508 19.6499 6.43855 20.2007 6.5353C21.2664 6.72433 21.2664 8.27583 20.2007 8.46358C19.1011 8.65768 18.2229 9.50257 17.9753 10.6063L17.9477 10.728C17.7151 11.762 16.2602 11.7556 16.0376 10.7192L16.015 10.6151C15.8982 10.0736 15.6249 9.57967 15.2301 9.19626C14.8354 8.81284 14.3369 8.55734 13.7984 8.46232C12.7339 8.27583 12.7339 6.7256 13.7984 6.53784C14.335 6.44316 14.8318 6.18914 15.226 5.80794C15.6201 5.42674 15.8939 4.93551 16.0125 4.39644L16.0288 4.32032L16.0376 4.27973ZM7.73223 13.7678C7.26339 13.2989 7 12.663 7 12C7 11.337 7.26339 10.7011 7.73223 10.2322C8.20107 9.76339 8.83696 9.5 9.5 9.5C10.163 9.5 10.7989 9.76339 11.2678 10.2322C11.7366 10.7011 12 11.337 12 12C12 12.663 11.7366 13.2989 11.2678 13.7678C10.7989 14.2366 10.163 14.5 9.5 14.5C8.83696 14.5 8.20107 14.2366 7.73223 13.7678Z" fill="#0171DD"/>
</svg>
