<svg width="24" height="25" viewBox="0 0 24 25" fill="none" xmlns="http://www.w3.org/2000/svg">
<path d="M20 10.5V7.36396C20 6.17049 19.5012 5.0239 18.4008 4.5618C17.1632 4.04207 15.1237 3.5 12 3.5C8.87634 3.5 6.83681 4.04207 5.59923 4.5618C4.49885 5.0239 4 6.17049 4 7.36396V10.5C4 19.3162 9.82942 21.1371 11.2096 21.4447C11.4037 21.488 11.5998 21.5 11.7987 21.5H12.0544C12.3507 21.5 12.6432 21.4729 12.9265 21.3858C14.5154 20.8976 20 18.624 20 10.5Z" fill="#B9DDFF"/>
<path d="M8 11.5H13C14.1046 11.5 15 10.6046 15 9.5V9.5C15 8.39543 14.1046 7.5 13 7.5H10V14.5M10 17.5V14.5M10 14.5H8M10 14.5H14" stroke="#0171DD"  fill="#B9DDFF" stroke-width="2"/>
</svg>
