<svg width="24" height="25" viewBox="0 0 24 25" fill="none" xmlns="http://www.w3.org/2000/svg">
<path fill-rule="evenodd" clip-rule="evenodd" d="M12 3.5C14.3869 3.5 16.6761 4.44821 18.364 6.13604C20.0518 7.82387 21 10.1131 21 12.5C21 14.8869 20.0518 17.1761 18.364 18.864C16.6761 20.5518 14.3869 21.5 12 21.5C9.61305 21.5 7.32387 20.5518 5.63604 18.864C3.94821 17.1761 3 14.8869 3 12.5C3 10.1131 3.94821 7.82387 5.63604 6.13604C7.32387 4.44821 9.61305 3.5 12 3.5Z" fill="#B9DDFF"/>
<path fill-rule="evenodd" clip-rule="evenodd" d="M10 9C10 9.82843 9.32843 10.5 8.5 10.5C7.67157 10.5 7 9.82843 7 9C7 8.17157 7.67157 7.5 8.5 7.5C9.32843 7.5 10 8.17157 10 9ZM17 9C17 9.82843 16.3284 10.5 15.5 10.5C14.6716 10.5 14 9.82843 14 9C14 8.17157 14.6716 7.5 15.5 7.5C16.3284 7.5 17 8.17157 17 9ZM12 16.5C9.79086 16.5 8 14.7091 8 12.5H6C6 15.8137 8.68629 18.5 12 18.5C15.3137 18.5 18 15.8137 18 12.5H16C16 14.7091 14.2091 16.5 12 16.5Z" fill="#0171DD"/>
</svg>
