<svg width="24" height="25" viewBox="0 0 24 25" fill="none" xmlns="http://www.w3.org/2000/svg">
<path fill-rule="evenodd" clip-rule="evenodd" d="M5.09994 3.30001C4.85272 2.97039 5.08791 2.5 5.49993 2.5H18.5C18.912 2.5 19.1472 2.97038 18.9 3.3L18.3 4.1C18.1111 4.35181 17.8147 4.5 17.5 4.5H14.4999L13.7928 5.20711C13.6053 5.39464 13.3509 5.5 13.0857 5.5H10.9141C10.6489 5.5 10.3946 5.39464 10.207 5.20711L9.49991 4.5H6.49995C6.1852 4.5 5.88881 4.35181 5.69996 4.10001L5.09994 3.30001ZM15.0426 17.582C15.7496 17.0518 16 16.472 16 16C16 15.6968 15.8966 15.349 15.6352 14.9985C14.4804 14.6738 13.2608 14.5 12.0001 14.5C10.7392 14.5 9.51965 14.6739 8.36473 14.9986C8.10336 15.349 8 15.6968 8 16C8 16.472 8.25042 17.0518 8.95736 17.582C9.66491 18.1126 10.734 18.5 12 18.5C13.266 18.5 14.3351 18.1126 15.0426 17.582ZM18 16C18 15.9716 17.9996 15.9432 17.9989 15.9149C18.7522 16.2935 19.4636 16.741 20.1246 17.2492C20.8003 17.7687 21.1832 18.6241 20.9121 19.4322C20.3139 21.2153 18.6294 22.5 16.6448 22.5H7.35566C5.37098 22.5 3.68638 21.2152 3.08826 19.4319C2.81723 18.6238 3.20014 17.7685 3.87586 17.249C4.53674 16.741 5.248 16.2935 6.00105 15.915C6.00035 15.9433 6 15.9716 6 16C6 18.4853 8.68629 20.5 12 20.5C15.3137 20.5 18 18.4853 18 16Z" fill="#B8D9F7"/>
<path fill-rule="evenodd" clip-rule="evenodd" d="M11 5.5H13V13.7007C13.5978 13.96 14 14.4448 14 15C14 15.8284 13.1046 16.5 12 16.5C10.8954 16.5 10 15.8284 10 15C10 14.4448 10.4022 13.96 11 13.7007V5.5ZM17.9989 15.9149C17.9996 15.9432 18 15.9716 18 16C18 18.4853 15.3137 20.5 12 20.5C8.68629 20.5 6 18.4853 6 16C6 15.9716 6.00035 15.9433 6.00105 15.915C6.7504 15.5384 7.54112 15.2301 8.36473 14.9986C8.10336 15.3491 8 15.6968 8 16C8 16.472 8.25042 17.0518 8.95736 17.582C9.66491 18.1127 10.734 18.5 12 18.5C13.266 18.5 14.3351 18.1127 15.0426 17.582C15.7496 17.0518 16 16.472 16 16C16 15.6968 15.8966 15.349 15.6352 14.9985C16.4588 15.2301 17.2496 15.5383 17.9989 15.9149ZM9.83205 11.9453L7.83205 8.9453L6.16795 10.0547L8.16795 13.0547L9.83205 11.9453ZM16.1679 8.9453L14.1679 11.9453L15.8321 13.0547L17.8321 10.0547L16.1679 8.9453Z" fill="#0171DD"/>
</svg>
