<svg width="25" height="24" viewBox="0 0 25 24" fill="none" xmlns="http://www.w3.org/2000/svg">
<path fill-rule="evenodd" clip-rule="evenodd" d="M8 3C5.51472 3 3.5 5.01472 3.5 7.5V16.5C3.5 18.9853 5.51472 21 8 21H17C19.4853 21 21.5 18.9853 21.5 16.5V7.5C21.5 5.01472 19.4853 3 17 3H8ZM5.5 7.5C5.5 6.11929 6.61929 5 8 5H17C18.3807 5 19.5 6.11929 19.5 7.5V16.5C19.5 17.8807 18.3807 19 17 19H8C6.61929 19 5.5 17.8807 5.5 16.5V7.5ZM11.5 16V13H8.5V11H11.5V8H13.5V11H16.5V13H13.5V16H11.5Z" fill="#C8CED4"/>
</svg>
