<svg width="24" height="24" viewBox="0 0 24 24" fill="none" xmlns="http://www.w3.org/2000/svg">
<path fill-rule="evenodd" clip-rule="evenodd" d="M6.53555 8.82647C3.75117 11.6108 3.75117 16.1252 6.53555 18.9096C9.31993 21.694 13.8343 21.694 16.6187 18.9096L18.7859 16.7424L17.3717 15.3281L15.2045 17.4954C13.2011 19.4987 9.95309 19.4987 7.94976 17.4954C5.94643 15.492 5.94643 12.244 7.94976 10.2407L12.2842 5.90623C13.4896 4.70085 15.4439 4.70085 16.6493 5.90623C17.8546 7.11161 17.8546 9.06591 16.6493 10.2713L12.3148 14.6057C11.9074 15.0132 11.2468 15.0132 10.8394 14.6057C10.432 14.1983 10.432 13.5377 10.8394 13.1303L15.1738 8.79586L13.7596 7.38165L9.42518 11.7161C8.23671 12.9046 8.23671 14.8315 9.42518 16.02C10.6137 17.2084 12.5406 17.2084 13.729 16.02L18.0635 11.6855C20.0499 9.69908 20.0499 6.47844 18.0635 4.49202C16.0771 2.50559 12.8564 2.50559 10.87 4.49202L6.53555 8.82647Z" fill="#0171DD"/>
</svg>
