<svg width="16" height="16" viewBox="0 0 16 16" fill="none" xmlns="http://www.w3.org/2000/svg">
<path fill-rule="evenodd" clip-rule="evenodd" d="M8 15C8.631 15 9.24251 14.9165 9.82407 14.76C9.2061 14.4966 8.68295 14.0284 8.35498 13.4156C7.83292 12.4401 7.89014 11.2565 8.50385 10.3359L10.5039 7.33591C11.4229 5.95733 13.2855 5.58481 14.6641 6.50386C14.7357 6.55162 14.8047 6.60193 14.8708 6.65458C14.2435 3.43229 11.4058 1 8 1C4.13401 1 1 4.13401 1 8C1 9.20288 1.30341 10.3349 1.83786 11.3237L1.05044 13.684C0.930562 14.0434 1.02403 14.4396 1.29188 14.7075C1.55972 14.9754 1.95595 15.069 2.31533 14.9492L4.67619 14.1621C5.66501 14.6966 6.79707 15 8 15ZM13.5547 8.16796C14.0142 8.47432 14.1384 9.09519 13.8321 9.55472L12.8685 11H15C15.3688 11 15.7077 11.203 15.8817 11.5282C16.0557 11.8533 16.0366 12.2479 15.8321 12.5547L13.8321 15.5547C13.5257 16.0142 12.9048 16.1384 12.4453 15.8321C11.9858 15.5257 11.8616 14.9048 12.168 14.4453L13.1315 13H11C10.6312 13 10.2923 12.797 10.1183 12.4719C9.94431 12.1467 9.96338 11.7522 10.168 11.4453L12.168 8.44531C12.4743 7.98579 13.0952 7.86161 13.5547 8.16796Z" fill="#7F8895"/>
</svg>
