<svg width="16" height="16" viewBox="0 0 16 16" fill="none" xmlns="http://www.w3.org/2000/svg">
<path fill-rule="evenodd" clip-rule="evenodd" d="M13 8C13 5.23858 10.7614 3 8 3V1C11.866 1 15 4.13401 15 8H13ZM11.3333 14C7.33331 14 2 8.66667 2 4.66667V4.08963C2 2.93556 2.93556 2 4.08963 2C4.4591 2 4.81344 2.14677 5.07469 2.40803L6.05787 3.3912C6.78258 4.11591 6.84217 5.27117 6.19589 6.0666L5.5 7C5.5 8 8 10.5 9 10.5L9.9334 9.80412C10.7288 9.15783 11.8841 9.21742 12.6088 9.94213L13.592 10.9253C13.8532 11.1866 14 11.5409 14 11.9104C14 13.0644 13.0644 14 11.9104 14H11.3333ZM8 7C8.55228 7 9 7.44772 9 8H11C11 6.34315 9.65685 5 8 5V7Z" fill="#7F8895"/>
</svg>
