<svg width="16" height="16" viewBox="0 0 16 16" fill="none" xmlns="http://www.w3.org/2000/svg">
<path fill-rule="evenodd" clip-rule="evenodd" d="M4 2C2.34315 2 1 3.34315 1 5V11C1 12.6569 2.34315 14 4 14H12C13.6569 14 15 12.6569 15 11V5C15 3.34315 13.6569 2 12 2H4ZM6.75 5.5C6.75 6.19036 6.19036 6.75 5.5 6.75C4.80964 6.75 4.25 6.19036 4.25 5.5C4.25 4.80964 4.80964 4.25 5.5 4.25C6.19036 4.25 6.75 4.80964 6.75 5.5ZM5.70711 11.7071L11.7071 5.70711L10.2929 4.29289L4.29289 10.2929L5.70711 11.7071ZM10.5 11.75C11.1904 11.75 11.75 11.1904 11.75 10.5C11.75 9.80964 11.1904 9.25 10.5 9.25C9.80964 9.25 9.25 9.80964 9.25 10.5C9.25 11.1904 9.80964 11.75 10.5 11.75Z" fill="#7F8895"/>
</svg>
