<svg width="25" height="24" viewBox="0 0 25 24" fill="none" xmlns="http://www.w3.org/2000/svg">
<path fill-rule="evenodd" clip-rule="evenodd" d="M7.96999 6.47375C8.6264 5.54925 9.68999 5 10.8238 5H15H18C19.3807 5 20.5 6.11929 20.5 7.5V16.5C20.5 17.8807 19.3807 19 18 19H15H10.8238C9.68999 19 8.6264 18.4508 7.96999 17.5262L4.86839 13.1579C4.37606 12.4645 4.37606 11.5355 4.86839 10.8421L7.96999 6.47375ZM10.8238 3C9.04208 3 7.37073 3.8631 6.33924 5.3159L3.23763 9.68429C2.25298 11.0711 2.25298 12.9289 3.23763 14.3157L6.33924 18.6841C7.37073 20.1369 9.04208 21 10.8238 21H15H18C20.4852 21 22.5 18.9853 22.5 16.5V7.5C22.5 5.01472 20.4852 3 18 3H15H10.8238ZM9.29301 9.20711L12.0859 12L9.29301 14.7929L10.7072 16.2071L13.5001 13.4142L16.293 16.2071L17.7072 14.7929L14.9143 12L17.7072 9.20711L16.293 7.79289L13.5001 10.5858L10.7072 7.79289L9.29301 9.20711Z" fill="#36383E"/>
</svg>
