<svg width="24" height="25" viewBox="0 0 24 25" fill="none" xmlns="http://www.w3.org/2000/svg">
<path d="M17 21.5C10 21.5 3 14.5 3 7.5V6.63445C3 4.90334 4.40334 3.5 6.13445 3.5C6.68865 3.5 7.22016 3.72016 7.61204 4.11204L8.9838 5.4838C10.1135 6.61351 10.1597 8.43037 9.08879 9.61598L7.62895 11.2322C7.54595 11.3241 7.49627 11.4429 7.51889 11.5646C7.8093 13.1274 11.3726 16.6907 12.9354 16.9811C13.0571 17.0037 13.1759 16.9541 13.2678 16.8711L14.884 15.4112C16.0696 14.3403 17.8865 14.3865 19.0162 15.5162L20.388 16.888C20.7798 17.2798 21 17.8113 21 18.3656C21 20.0967 19.5967 21.5 17.8656 21.5H17Z" fill="#B8D9F7"/>
<path fill-rule="evenodd" clip-rule="evenodd" d="M6.13436 3.5C5.2688 3.5 4.48519 3.85083 3.91797 4.41806L9.10156 9.60165C10.1592 8.41577 10.1089 6.60897 8.98371 5.4838L7.61195 4.11204C7.22007 3.72016 6.68856 3.5 6.13436 3.5ZM19.0161 15.5162C17.8909 14.391 16.0841 14.3407 14.8983 15.3983L20.0819 20.5819C20.6491 20.0147 20.9999 19.2311 20.9999 18.3656C20.9999 17.8113 20.7798 17.2798 20.3879 16.888L19.0161 15.5162ZM14.7071 11.2071L18 7.91421V10.5H20V5.5C20 4.94772 19.5523 4.5 19 4.5L14 4.5L14 6.5L16.5858 6.5L13.2929 9.79289L14.7071 11.2071Z" fill="#0171DD"/>
</svg>
