<svg width="24" height="24" viewBox="0 0 24 24" fill="none" xmlns="http://www.w3.org/2000/svg">
<path d="M17 21C10 21 3 14 3 7V6.13445C3 4.40334 4.40334 3 6.13445 3C6.68865 3 7.22016 3.22016 7.61204 3.61204L8.9838 4.9838C10.1135 6.11351 10.1597 7.93037 9.08879 9.11598L7.62895 10.7322C7.54595 10.8241 7.49627 10.9429 7.51889 11.0646C7.8093 12.6274 11.3726 16.1907 12.9354 16.4811C13.0571 16.5037 13.1759 16.4541 13.2678 16.3711L14.884 14.9112C16.0696 13.8403 17.8865 13.8865 19.0162 15.0162L20.388 16.388C20.7798 16.7798 21 17.3113 21 17.8656C21 19.5967 19.5967 21 17.8656 21H17Z" fill="#B8D9F7"/>
<path fill-rule="evenodd" clip-rule="evenodd" d="M6.13436 3C5.2688 3 4.48519 3.35083 3.91797 3.91806L9.10156 9.10165C10.1592 7.91577 10.1089 6.10897 8.98371 4.9838L7.61195 3.61204C7.22007 3.22016 6.68856 3 6.13436 3ZM19.0161 15.0162C17.8909 13.891 16.0841 13.8407 14.8983 14.8983L20.0819 20.0819C20.6491 19.5147 20.9999 18.7311 20.9999 17.8656C20.9999 17.3113 20.7798 16.7798 20.3879 16.388L19.0161 15.0162ZM18.2929 4.29289L15 7.58579V5H13V10C13 10.5523 13.4477 11 14 11H19V9H16.4142L19.7071 5.70711L18.2929 4.29289Z" fill="#0171DD"/>
</svg>
