<svg width="24" height="24" viewBox="0 0 24 24" fill="none" xmlns="http://www.w3.org/2000/svg">
<g clip-path="url(#clip0_414_8274)">
<path d="M17.9422 4.03673H6.0578C5.6811 4.31828 5.32504 4.62593 4.99231 4.95701L8.01622 7.98092H15.9838L19.0077 4.95701C18.675 4.62593 18.3189 4.31828 17.9422 4.03673Z" fill="#B0B0B0" fill-opacity="0.1"/>
<path d="M16.0191 15.9838L19.043 19.0077C19.3741 18.675 19.6817 18.3189 19.9633 17.9422V6.0578C19.6817 5.6811 19.3741 5.32504 19.043 4.99231L16.0191 8.01622V15.9838Z" fill="#B0B0B0" fill-opacity="0.1"/>
<path d="M8.06615 8.03085H15.9339L12 11.9647L8.06615 8.03085Z" fill="#B0B0B0" fill-opacity="0.1"/>
<path d="M15.9692 15.9339L12.0353 12L15.9692 8.06615V15.9339Z" fill="#B0B0B0" fill-opacity="0.1"/>
<path d="M8.06615 15.9692L12 12.0353L15.9339 15.9692H8.06615Z" fill="#B0B0B0" fill-opacity="0.1"/>
<path d="M11.9647 12L8.03085 15.9339V8.06615L11.9647 12Z" fill="#B0B0B0" fill-opacity="0.1"/>
<path d="M7.98092 8.01622L4.95701 4.99231C4.62593 5.32504 4.31828 5.6811 4.03673 6.0578V17.9422C4.31828 18.3189 4.62593 18.675 4.95701 19.0077L7.98092 15.9838V8.01622Z" fill="#B0B0B0" fill-opacity="0.1"/>
<path d="M3.0382 7.70544V16.2946C3.30588 16.8521 3.62405 17.3809 3.9868 17.8748V6.12519C3.62405 6.61914 3.30588 7.14787 3.0382 7.70544Z" fill="#B0B0B0" fill-opacity="0.1"/>
<path d="M2.98828 16.189V7.81103C2.39558 9.08393 2.06464 10.5033 2.06464 12C2.06464 13.4967 2.39558 14.9161 2.98828 16.189Z" fill="#B0B0B0" fill-opacity="0.1"/>
<path d="M2.98828 4.03673H2.03967V11.2884C2.12978 10.0087 2.46103 8.79552 2.98828 7.69406V4.03673Z" fill="#B0B0B0" fill-opacity="0.1"/>
<path d="M3.9868 4.03673H3.0382V7.59128C3.30771 7.04448 3.62579 6.52592 3.9868 6.04122V4.03673Z" fill="#B0B0B0" fill-opacity="0.1"/>
<path d="M3.0382 3.9868V3.07351L3.9515 3.9868H3.0382Z" fill="#B0B0B0" fill-opacity="0.1"/>
<path d="M3.9868 3.0382V3.9515L3.07351 3.0382H3.9868Z" fill="#B0B0B0" fill-opacity="0.1"/>
<path d="M4.03673 4.07203V5.97477C4.30878 5.61577 4.60455 5.27574 4.9217 4.95701L4.03673 4.07203Z" fill="#B0B0B0" fill-opacity="0.1"/>
<path d="M4.07203 4.03673L4.95701 4.9217C5.27574 4.60455 5.61577 4.30878 5.97477 4.03673H4.07203Z" fill="#B0B0B0" fill-opacity="0.1"/>
<path d="M7.59128 3.0382H4.03673V3.9868H6.04122C6.52592 3.62579 7.04448 3.30771 7.59128 3.0382Z" fill="#B0B0B0" fill-opacity="0.1"/>
<path d="M4.03673 2.98828H7.69406C8.79552 2.46103 10.0087 2.12978 11.2884 2.03967H4.03673V2.98828Z" fill="#B0B0B0" fill-opacity="0.1"/>
<path d="M7.70544 3.0382C7.14787 3.30588 6.61914 3.62405 6.12519 3.9868H17.8748C17.3809 3.62405 16.8521 3.30588 16.2946 3.0382H7.70544Z" fill="#B0B0B0" fill-opacity="0.1"/>
<path d="M7.81103 2.98828H16.189C14.9161 2.39558 13.4967 2.06464 12 2.06464C10.5033 2.06464 9.08393 2.39558 7.81103 2.98828Z" fill="#B0B0B0" fill-opacity="0.1"/>
<path d="M19.9633 2.98828V2.03967H12.7116C13.9913 2.12978 15.2045 2.46103 16.3059 2.98828H19.9633Z" fill="#B0B0B0" fill-opacity="0.1"/>
<path d="M19.9633 3.9868V3.0382H16.4087C16.9555 3.30771 17.4741 3.62579 17.9588 3.9868H19.9633Z" fill="#B0B0B0" fill-opacity="0.1"/>
<path d="M20.0132 3.0382H20.9265L20.0132 3.9515V3.0382Z" fill="#B0B0B0" fill-opacity="0.1"/>
<path d="M20.9618 3.9868H20.0485L20.9618 3.0735V3.9868Z" fill="#B0B0B0" fill-opacity="0.1"/>
<path d="M19.043 4.9217L19.928 4.03673H18.0252C18.3842 4.30878 18.7243 4.60455 19.043 4.9217Z" fill="#B0B0B0" fill-opacity="0.1"/>
<path d="M19.9633 4.07203L19.0783 4.95701C19.3954 5.27574 19.6912 5.61577 19.9633 5.97477V4.07203Z" fill="#B0B0B0" fill-opacity="0.1"/>
<path d="M20.9618 7.59128V4.03673H20.0132V6.04122C20.3742 6.52592 20.6923 7.04448 20.9618 7.59128Z" fill="#B0B0B0" fill-opacity="0.1"/>
<path d="M21.0117 4.03673V7.69406C21.539 8.79552 21.8702 10.0087 21.9603 11.2884V4.03673H21.0117Z" fill="#B0B0B0" fill-opacity="0.1"/>
<path d="M20.9618 7.70543C20.6941 7.14787 20.3759 6.61914 20.0132 6.12519V17.8748C20.3759 17.3809 20.6941 16.8521 20.9618 16.2946V7.70543Z" fill="#B0B0B0" fill-opacity="0.1"/>
<path d="M21.0117 7.81102V16.189C21.6044 14.9161 21.9354 13.4967 21.9354 12C21.9354 10.5033 21.6044 9.08393 21.0117 7.81102Z" fill="#B0B0B0" fill-opacity="0.1"/>
<path d="M21.0117 19.9633H21.9603V12.7116C21.8702 13.9913 21.539 15.2045 21.0117 16.3059V19.9633Z" fill="#B0B0B0" fill-opacity="0.1"/>
<path d="M20.0132 19.9633H20.9618V16.4087C20.6923 16.9555 20.3742 17.4741 20.0132 17.9588V19.9633Z" fill="#B0B0B0" fill-opacity="0.1"/>
<path d="M20.9618 20.0132V20.9265L20.0485 20.0132H20.9618Z" fill="#B0B0B0" fill-opacity="0.1"/>
<path d="M20.0132 20.9618V20.0485L20.9265 20.9618H20.0132Z" fill="#B0B0B0" fill-opacity="0.1"/>
<path d="M16.4087 20.9618H19.9633V20.0132H17.9588C17.4741 20.3742 16.9555 20.6923 16.4087 20.9618Z" fill="#B0B0B0" fill-opacity="0.1"/>
<path d="M19.928 19.9633L19.043 19.0783C18.7243 19.3954 18.3842 19.6912 18.0252 19.9633H19.928Z" fill="#B0B0B0" fill-opacity="0.1"/>
<path d="M19.9633 19.928V18.0252C19.6912 18.3842 19.3954 18.7243 19.0783 19.043L19.9633 19.928Z" fill="#B0B0B0" fill-opacity="0.1"/>
<path d="M19.9633 21.0117H16.3059C15.2045 21.539 13.9913 21.8702 12.7116 21.9603H19.9633V21.0117Z" fill="#B0B0B0" fill-opacity="0.1"/>
<path d="M12 21.9354C13.4967 21.9354 14.9161 21.6044 16.189 21.0117H7.81102C9.08393 21.6044 10.5033 21.9354 12 21.9354Z" fill="#B0B0B0" fill-opacity="0.1"/>
<path d="M17.8748 20.0132H6.12519C6.61914 20.3759 7.14787 20.6941 7.70543 20.9618H16.2946C16.8521 20.6941 17.3809 20.3759 17.8748 20.0132Z" fill="#B0B0B0" fill-opacity="0.1"/>
<path d="M15.9838 16.0191H8.01622L4.99231 19.043C5.32504 19.3741 5.6811 19.6817 6.0578 19.9633H17.9422C18.3189 19.6817 18.675 19.3741 19.0077 19.043L15.9838 16.0191Z" fill="#B0B0B0" fill-opacity="0.1"/>
<path d="M4.03673 21.0117V21.9603H11.2884C10.0087 21.8702 8.79552 21.539 7.69406 21.0117H4.03673Z" fill="#B0B0B0" fill-opacity="0.1"/>
<path d="M4.03673 20.0132V20.9618H7.59128C7.04448 20.6923 6.52592 20.3742 6.04122 20.0132H4.03673Z" fill="#B0B0B0" fill-opacity="0.1"/>
<path d="M3.0382 20.0132H3.9515L3.0382 20.9265V20.0132Z" fill="#B0B0B0" fill-opacity="0.1"/>
<path d="M3.9868 20.9618H3.0735L3.9868 20.0485V20.9618Z" fill="#B0B0B0" fill-opacity="0.1"/>
<path d="M4.07203 19.9633H5.97477C5.61577 19.6912 5.27574 19.3954 4.95701 19.0783L4.07203 19.9633Z" fill="#B0B0B0" fill-opacity="0.1"/>
<path d="M4.03673 18.0252V19.928L4.9217 19.043C4.60455 18.7243 4.30878 18.3842 4.03673 18.0252Z" fill="#B0B0B0" fill-opacity="0.1"/>
<path d="M3.0382 19.9633H3.9868V17.9588C3.62579 17.4741 3.30771 16.9555 3.0382 16.4087V19.9633Z" fill="#B0B0B0" fill-opacity="0.1"/>
<path d="M2.03967 19.9633H2.98828V16.3059C2.46103 15.2045 2.12978 13.9913 2.03967 12.7116V19.9633Z" fill="#B0B0B0" fill-opacity="0.1"/>
<path fill-rule="evenodd" clip-rule="evenodd" d="M0 0.0353033L2.98828 3.02358V3.9868H1.98975V20.0132H2.98828V20.9764L0 23.9647L0.0353033 24L3.02358 21.0117H3.9868V22.0103H20.0132V21.0117H20.9764L23.9647 24L24 23.9647L21.0117 20.9764V20.0132H22.0103V3.9868H21.0117V3.02358L24 0.0353033L23.9647 0L20.9764 2.98828H20.0132V1.98975H3.9868V2.98828H3.02358L0.0353033 0L0 0.0353033ZM3.0382 3.9868V3.07351L3.9515 3.9868H3.0382ZM3.0382 4.03673H3.9868V6.04122C3.62579 6.52592 3.30771 7.04448 3.0382 7.59128V4.03673ZM2.98828 7.69406V4.03673H2.03967V11.2884C2.12978 10.0087 2.46103 8.79552 2.98828 7.69406ZM2.03967 12.7116V19.9633H2.98828V16.3059C2.46103 15.2045 2.12978 13.9913 2.03967 12.7116ZM2.98828 16.189V7.81103C2.39558 9.08393 2.06464 10.5033 2.06464 12C2.06464 13.4967 2.39558 14.9161 2.98828 16.189ZM3.0382 16.4087V19.9633H3.9868V17.9588C3.62579 17.4741 3.30771 16.9555 3.0382 16.4087ZM4.03673 17.9422C4.31828 18.3189 4.62593 18.675 4.95701 19.0077L7.98092 15.9838V8.01622L4.95701 4.99231C4.62593 5.32504 4.31828 5.6811 4.03673 6.0578V17.9422ZM3.9868 6.12519C3.62405 6.61914 3.30588 7.14787 3.0382 7.70544V16.2946C3.30588 16.8521 3.62405 17.3809 3.9868 17.8748V6.12519ZM4.03673 5.97477C4.30878 5.61577 4.60455 5.27574 4.9217 4.95701L4.03673 4.07203V5.97477ZM4.99231 4.95701L8.01622 7.98092H15.9838L19.0077 4.95701C18.675 4.62593 18.3189 4.31828 17.9422 4.03673H6.0578C5.6811 4.31828 5.32504 4.62593 4.99231 4.95701ZM5.97477 4.03673H4.07203L4.95701 4.9217C5.27574 4.60455 5.61577 4.30878 5.97477 4.03673ZM6.12519 3.9868H17.8748C17.3809 3.62405 16.8521 3.30588 16.2946 3.0382H16.4087C16.9555 3.30771 17.4741 3.62579 17.9588 3.9868H19.9633V3.0382H16.4087C16.3746 3.02137 16.3403 3.00473 16.3059 2.98828H19.9633V2.03967H12.7116C13.9913 2.12978 15.2045 2.46103 16.3059 2.98828H16.189C14.9161 2.39558 13.4967 2.06464 12 2.06464C10.5033 2.06464 9.08393 2.39558 7.81103 2.98828H16.189C16.2243 3.00472 16.2595 3.02136 16.2946 3.0382H7.70544C7.14787 3.30588 6.61914 3.62405 6.12519 3.9868ZM7.59128 3.0382H4.03673V3.9868H6.04122C6.52592 3.62579 7.04448 3.30771 7.59128 3.0382ZM18.0252 4.03673C18.3842 4.30878 18.7243 4.60455 19.043 4.9217L19.928 4.03673H18.0252ZM19.043 4.99231L16.0191 8.01622V15.9838L19.043 19.0077C19.3741 18.675 19.6817 18.3189 19.9633 17.9422V6.0578C19.6817 5.6811 19.3741 5.32504 19.043 4.99231ZM19.9633 5.97477C19.6912 5.61577 19.3954 5.27574 19.0783 4.95701L19.9633 4.07203V5.97477ZM20.0132 17.8748C20.3759 17.3809 20.6941 16.8521 20.9618 16.2946V7.70543C20.6941 7.14787 20.3759 6.61914 20.0132 6.12519V17.8748ZM21.0117 16.189C21.6044 14.9161 21.9354 13.4967 21.9354 12C21.9354 10.5033 21.6044 9.08393 21.0117 7.81102V16.189ZM20.9618 16.4087C20.6923 16.9555 20.3742 17.4741 20.0132 17.9588V19.9633H20.9618V16.4087ZM21.0117 16.3059V19.9633H21.9603V12.7116C21.8702 13.9913 21.539 15.2045 21.0117 16.3059ZM21.9603 11.2884V4.03673H21.0117V7.69406C21.539 8.79552 21.8702 10.0087 21.9603 11.2884ZM20.9618 7.59128V4.03673H20.0132V6.04122C20.3742 6.52592 20.6923 7.04448 20.9618 7.59128ZM19.9633 18.0252C19.6912 18.3842 19.3954 18.7243 19.0783 19.043L19.9633 19.928V18.0252ZM19.0077 19.043L15.9838 16.0191H8.01622L4.99231 19.043C5.32504 19.3741 5.6811 19.6817 6.0578 19.9633H17.9422C18.3189 19.6817 18.675 19.3741 19.0077 19.043ZM18.0252 19.9633C18.3842 19.6912 18.7243 19.3954 19.043 19.0783L19.928 19.9633H18.0252ZM6.12519 20.0132C6.61914 20.3759 7.14787 20.6941 7.70543 20.9618H16.2946C16.8521 20.6941 17.3809 20.3759 17.8748 20.0132H6.12519ZM7.81102 21.0117C9.08393 21.6044 10.5033 21.9354 12 21.9354C13.4967 21.9354 14.9161 21.6044 16.189 21.0117H7.81102ZM7.59128 20.9618C7.04448 20.6923 6.52592 20.3742 6.04122 20.0132H4.03673V20.9618H7.59128ZM7.69406 21.0117H4.03673V21.9603H11.2884C10.0087 21.8702 8.79552 21.539 7.69406 21.0117ZM12.7116 21.9603H19.9633V21.0117H16.3059C15.2045 21.539 13.9913 21.8702 12.7116 21.9603ZM16.4087 20.9618H19.9633V20.0132H17.9588C17.4741 20.3742 16.9555 20.6923 16.4087 20.9618ZM5.97477 19.9633C5.61577 19.6912 5.27574 19.3954 4.95701 19.0783L4.07203 19.9633H5.97477ZM11.2884 2.03967H4.03673V2.98828H7.69406C8.79552 2.46103 10.0087 2.12978 11.2884 2.03967ZM4.9217 19.043C4.60455 18.7243 4.30878 18.3842 4.03673 18.0252V19.928L4.9217 19.043ZM3.0382 20.0132H3.9515L3.0382 20.9265V20.0132ZM3.9868 20.9618H3.0735L3.9868 20.0485V20.9618ZM20.0132 20.9618V20.0485L20.9265 20.9618H20.0132ZM20.9618 20.0132V20.9265L20.0485 20.0132H20.9618ZM20.9618 3.9868H20.0485L20.9618 3.0735V3.9868ZM20.0132 3.0382H20.9265L20.0132 3.9515V3.0382ZM3.9868 3.0382V3.9515L3.07351 3.0382H3.9868ZM12 11.9647L8.06615 8.03085H15.9339L12 11.9647ZM8.06615 15.9692L12 12.0353L15.9339 15.9692H8.06615ZM8.03085 15.9339L11.9647 12L8.03085 8.06615V15.9339ZM12.0353 12L15.9692 15.9339V8.06615L12.0353 12Z" fill="#B0B0B0"/>
<path d="M16.189 2.98828C16.2243 3.00472 16.2595 3.02136 16.2946 3.0382H16.4087C16.3746 3.02137 16.3403 3.00473 16.3059 2.98828H16.189Z" fill="#B0B0B0"/>
<path fill-rule="evenodd" clip-rule="evenodd" d="M9.92705 3C8.98012 3 8.11446 3.53501 7.69098 4.38197L6.88197 6H6.5C4.01472 6 2 8.01472 2 10.5V16.5C2 18.9853 4.01472 21 6.5 21H17.5C19.9853 21 22 18.9853 22 16.5V10.5C22 8.01472 19.9853 6 17.5 6H17.118L16.309 4.38197C15.8855 3.53501 15.0199 3 14.0729 3H9.92705ZM9.47984 5.27639C9.56453 5.107 9.73767 5 9.92705 5H14.0729C14.2623 5 14.4355 5.107 14.5202 5.27639L15.6056 7.44721C15.775 7.786 16.1212 8 16.5 8H17.5C18.8807 8 20 9.11929 20 10.5V16.5C20 17.8807 18.8807 19 17.5 19H6.5C5.11929 19 4 17.8807 4 16.5V10.5C4 9.11929 5.11929 8 6.5 8H7.5C7.87877 8 8.22504 7.786 8.39443 7.44721L9.47984 5.27639ZM12 9C10.9391 9 9.92172 9.42143 9.17157 10.1716C8.42143 10.9217 8 11.9391 8 13C8 14.0609 8.42143 15.0783 9.17157 15.8284C9.92172 16.5786 10.9391 17 12 17C13.0609 17 14.0783 16.5786 14.8284 15.8284C15.5786 15.0783 16 14.0609 16 13C16 11.9391 15.5786 10.9217 14.8284 10.1716C14.0783 9.42143 13.0609 9 12 9ZM10.5858 11.5858C10.9609 11.2107 11.4696 11 12 11C12.5304 11 13.0391 11.2107 13.4142 11.5858C13.7893 11.9609 14 12.4696 14 13C14 13.5304 13.7893 14.0391 13.4142 14.4142C13.0391 14.7893 12.5304 15 12 15C11.4696 15 10.9609 14.7893 10.5858 14.4142C10.2107 14.0391 10 13.5304 10 13C10 12.4696 10.2107 11.9609 10.5858 11.5858Z" fill="#2E2F33"/>
</g>
<defs>
<clipPath id="clip0_414_8274">
<rect width="24" height="24" fill="white"/>
</clipPath>
</defs>
</svg>
