<svg width="25" height="24" viewBox="0 0 25 24" fill="none" xmlns="http://www.w3.org/2000/svg">
<path fill-rule="evenodd" clip-rule="evenodd" d="M4.83351 12C4.83351 7.58172 8.41523 4 12.8335 4C17.2518 4 20.8335 7.58172 20.8335 12C20.8335 16.4183 17.2518 20 12.8335 20C11.5221 20 10.2871 19.6852 9.19718 19.128L8.8872 18.9695L8.54582 19.0377L5.10827 19.7252L5.79578 16.2877L5.86405 15.9463L5.70556 15.6363C5.1483 14.5464 4.83351 13.3114 4.83351 12ZM12.8335 2C7.31066 2 2.83351 6.47715 2.83351 12C2.83351 13.5088 3.16831 14.9418 3.76835 16.2268L2.85293 20.8039C2.78736 21.1317 2.88998 21.4707 3.12641 21.7071C3.36283 21.9435 3.70177 22.0462 4.02963 21.9806L8.60672 21.0652C9.89167 21.6652 11.3247 22 12.8335 22C18.3564 22 22.8335 17.5228 22.8335 12C22.8335 6.47715 18.3564 2 12.8335 2ZM8.18351 13.35C8.9291 13.35 9.53351 12.7456 9.53351 12C9.53351 11.2544 8.9291 10.65 8.18351 10.65C7.43793 10.65 6.83351 11.2544 6.83351 12C6.83351 12.7456 7.43793 13.35 8.18351 13.35ZM12.8335 13.35C13.5791 13.35 14.1835 12.7456 14.1835 12C14.1835 11.2544 13.5791 10.65 12.8335 10.65C12.0879 10.65 11.4835 11.2544 11.4835 12C11.4835 12.7456 12.0879 13.35 12.8335 13.35ZM18.8335 12C18.8335 12.7456 18.2291 13.35 17.4835 13.35C16.7379 13.35 16.1335 12.7456 16.1335 12C16.1335 11.2544 16.7379 10.65 17.4835 10.65C18.2291 10.65 18.8335 11.2544 18.8335 12Z" fill="#C8CED4"/>
</svg>
