<svg width="24" height="24" viewBox="0 0 24 24" fill="none" xmlns="http://www.w3.org/2000/svg">
<path fill-rule="evenodd" clip-rule="evenodd" d="M3 7.5C3 5.01472 5.01472 3 7.5 3H12.5C14.2669 3 15.7959 4.01828 16.5322 5.5H14.0002C13.5824 5.18605 13.0629 5 12.5 5H7.5C6.11929 5 5 6.11929 5 7.5V12.5C5 13.0629 5.18604 13.5824 5.5 14.0002V16.5322C4.01828 15.7959 3 14.2669 3 12.5V7.5ZM11.5 7C9.01472 7 7 9.01472 7 11.5V16.5C7 18.9853 9.01472 21 11.5 21H16.5C18.9853 21 21 18.9853 21 16.5V11.5C21 9.01472 18.9853 7 16.5 7H11.5ZM9 11.5C9 10.1193 10.1193 9 11.5 9H16.5C17.8807 9 19 10.1193 19 11.5V16.5C19 17.8807 17.8807 19 16.5 19H11.5C10.1193 19 9 17.8807 9 16.5V11.5Z" fill="#2E2F33"/>
</svg>
