<svg width="24" height="24" viewBox="0 0 24 24" fill="none" xmlns="http://www.w3.org/2000/svg">
<path fill-rule="evenodd" clip-rule="evenodd" d="M9.33032 16.9683C9.5508 16.9893 9.77419 17 10 17C13.866 17 17 13.866 17 9.99998C17 9.7741 16.9893 9.55072 16.9684 9.33032C19.3153 10.145 21 12.3757 21 15C21 15.9052 20.7991 16.7651 20.4391 17.5361L20.9883 20.2823C21.0277 20.479 20.9661 20.6824 20.8243 20.8242C20.6824 20.9661 20.479 21.0277 20.2823 20.9883L17.5361 20.4391C16.7651 20.7991 15.9053 21 15 21C12.3757 21 10.145 19.3152 9.33032 16.9683Z" fill="#B8D9F7"/>
<path fill-rule="evenodd" clip-rule="evenodd" d="M3.00001 9.99999C3.00001 6.134 6.13402 3 10 3C13.866 3 17 6.134 17 9.99999C17 13.866 13.866 17 10 17C8.94386 17 7.94072 16.7656 7.04126 16.3456L3.83729 16.9864C3.60779 17.0323 3.37053 16.9605 3.20504 16.795C3.03954 16.6295 2.9677 16.3922 3.0136 16.1627L3.6544 12.9587C3.23437 12.0593 3.00001 11.0561 3.00001 9.99999ZM8.92664 5.55792C9.58629 5.42593 10.2712 5.52103 10.8699 5.82775L10.8735 5.82959C11.4705 6.13843 11.9466 6.63861 12.2256 7.25006C12.5046 7.86152 12.5705 8.5489 12.4126 9.2022C12.2547 9.85551 11.8822 10.437 11.3548 10.8535C10.8273 11.2701 10.1753 11.4976 9.50321 11.4998C8.95093 11.5015 8.50179 11.0552 8.50003 10.503C8.49826 9.95068 8.94455 9.50153 9.49683 9.49977C9.72131 9.49905 9.93907 9.42305 10.1152 9.28392C10.2914 9.1448 10.4158 8.95059 10.4686 8.73239C10.5213 8.51418 10.4993 8.2846 10.4061 8.08037C10.3132 7.87676 10.1548 7.71009 9.95631 7.60687C9.75983 7.50673 9.5353 7.47578 9.31902 7.51905C9.10209 7.56245 8.90623 7.67798 8.76329 7.84685C8.40647 8.26839 7.77548 8.32086 7.35394 7.96403C6.9324 7.60721 6.87993 6.97623 7.23675 6.55469C7.67139 6.04121 8.26698 5.68991 8.92664 5.55792ZM10.5 13.4998C10.5 14.052 10.0523 14.4998 9.50002 14.4998C8.94774 14.4998 8.50002 14.052 8.50002 13.4998C8.50002 12.9475 8.94774 12.4998 9.50002 12.4998C10.0523 12.4998 10.5 12.9475 10.5 13.4998Z" fill="#0171DD"/>
</svg>
