<svg width="25" height="24" viewBox="0 0 25 24" fill="none" xmlns="http://www.w3.org/2000/svg">
<path fill-rule="evenodd" clip-rule="evenodd" d="M4.16675 4H9.66675C9.66675 9.79899 14.3678 14.5 20.1667 14.5V20C11.3302 20 4.16675 12.8366 4.16675 4ZM15.9167 4C15.9167 4.75988 15.8885 5.30177 15.8135 5.70001C15.7399 6.09094 15.6342 6.26875 15.5349 6.36811C15.4355 6.46746 15.2577 6.5731 14.8668 6.64676C14.4685 6.72179 13.9266 6.75 13.1667 6.75V8.25C13.9266 8.25 14.4685 8.27821 14.8668 8.35324C15.2577 8.4269 15.4355 8.53254 15.5349 8.63189C15.6342 8.73125 15.7399 8.90906 15.8135 9.29999C15.8885 9.69823 15.9167 10.2401 15.9167 11H17.4167C17.4167 10.2401 17.445 9.69823 17.52 9.29999C17.5936 8.90906 17.6993 8.73125 17.7986 8.63189C17.898 8.53254 18.0758 8.4269 18.4667 8.35324C18.865 8.27821 19.4069 8.25 20.1667 8.25V6.75C19.4069 6.75 18.865 6.72179 18.4667 6.64676C18.0758 6.5731 17.898 6.46746 17.7986 6.36811C17.6993 6.26875 17.5936 6.09094 17.52 5.70001C17.445 5.30177 17.4167 4.75988 17.4167 4H15.9167Z" fill="#0171DD"/>
</svg>
