<svg width="24" height="24" viewBox="0 0 24 24" fill="none" xmlns="http://www.w3.org/2000/svg">
<path fill-rule="evenodd" clip-rule="evenodd" d="M6.5 3C4.01472 3 2 5.01472 2 7.5V16.5C2 18.9853 4.01472 21 6.5 21H10.5C12.9853 21 15 18.9853 15 16.5V15H13V16.5C13 17.8807 11.8807 19 10.5 19H6.5C5.11929 19 4 17.8807 4 16.5V7.5C4 6.11929 5.11929 5 6.5 5H10.5C11.8807 5 13 6.11929 13 7.5V9H15V7.5C15 5.01472 12.9853 3 10.5 3H6.5ZM17.7928 7.79289L21.2929 11.2929L22 12L21.2929 12.7071L17.7928 16.2071L16.3786 14.7929L18.1715 13H7.58574V11H18.1715L16.3786 9.20711L17.7928 7.79289Z" fill="#2E2F33"/>
</svg>
