<svg width="40" height="40" viewBox="0 0 40 40" fill="none" xmlns="http://www.w3.org/2000/svg">
<path d="M20.0001 1.66669C16.8332 1.66669 14.182 3.8749 13.5024 6.8356L26.0776 19.4108C26.4561 18.5739 26.6668 17.6449 26.6668 16.6667V8.33335C26.6668 4.65146 23.682 1.66669 20.0001 1.66669Z"/>
<path d="M13.3335 15.6904V16.6667C13.3335 20.3486 16.3182 23.3334 20.0001 23.3334C20.3102 23.3334 20.6154 23.3122 20.9143 23.2712L23.6284 25.9853C22.4826 26.4314 21.2535 26.6667 20.0001 26.6667C17.348 26.6667 14.8044 25.6131 12.9291 23.7378C11.0537 21.8624 10.0001 19.3189 10.0001 16.6667V15H6.66679V16.6667C6.66679 20.2029 8.07155 23.5943 10.572 26.0948C12.6764 28.1992 15.4118 29.5275 18.3335 29.8955V33.3334H11.6668V36.6667H28.3335V33.3334H21.6668V29.8955C23.2357 29.6979 24.7509 29.2233 26.1435 28.5004L31.3216 33.6785L33.6786 31.3215L7.8453 5.48818L5.48828 7.8452L13.3335 15.6904Z"/>
<path d="M33.3335 16.6667C33.3335 19.4071 32.4898 22.0605 30.9464 24.2797L28.5387 21.8719C29.4867 20.3167 30.0001 18.5181 30.0001 16.6667V15H33.3335V16.6667Z"/>
</svg>
