<svg width="24" height="24" viewBox="0 0 24 24" fill="none" xmlns="http://www.w3.org/2000/svg">
<path fill-rule="evenodd" clip-rule="evenodd" d="M12.0001 2C10.6418 2 9.53647 3.08328 9.50098 4.43304C6 5.81036 6 10 6 10V12.1972C6 13.3727 5.65205 14.5219 5 15.5L4.12892 16.8066C4.04486 16.9327 4 17.0809 4 17.2324C4 17.6563 4.34366 18 4.76759 18H19.2324C19.6563 18 20 17.6563 20 17.2324C20 17.0809 19.9551 16.9327 19.8711 16.8066L19 15.5C18.3479 14.5219 18 13.3727 18 12.1972V10C18 10 18 5.81052 14.4992 4.43312C14.4638 3.08332 13.3584 2 12.0001 2ZM12 22C10.3213 22 8.88416 20.9659 8.29077 19.5H15.7093C15.1159 20.9659 13.6787 22 12 22Z" fill="#2E2F33"/>
</svg>
