<svg width="24" height="24" viewBox="0 0 24 24" fill="none" xmlns="http://www.w3.org/2000/svg">
<path d="M17 21C11 21 3 13 3 7V5.35083C3 4.0525 4.0525 3 5.35083 3C5.76649 3 6.16512 3.16512 6.45903 3.45903L8.80198 5.80198C9.49331 6.49331 9.5835 7.5831 9.01523 8.37867L7.96567 9.84807C7.66281 10.2721 7.49805 10.7923 7.73038 11.2587C8.52006 12.844 11.156 15.4799 12.7413 16.2696C13.2077 16.502 13.7279 16.3372 14.1519 16.0343L15.6213 14.9848C16.4169 14.4165 17.5067 14.5067 18.198 15.198L20.541 17.541C20.8349 17.8349 21 18.2335 21 18.6492C21 19.9475 19.9475 21 18.6492 21H17Z"/>
</svg>
