<svg width="40" height="40" viewBox="0 0 40 40" fill="none" xmlns="http://www.w3.org/2000/svg">
<path d="M7.49967 13.3333H9.16634L14.9881 6.05616C15.5221 5.3886 16.3307 5 17.1855 5C18.7397 5 19.9997 6.25993 19.9997 7.81413V32.1859C19.9997 33.7401 18.7397 35 17.1855 35C16.3307 35 15.5221 34.6114 14.9881 33.9438L9.16634 26.6667H7.49967C5.19849 26.6667 3.33301 24.8012 3.33301 22.5V17.5C3.33301 15.1988 5.19849 13.3333 7.49967 13.3333Z"/>
<path d="M31.8256 13.8416C30.8348 11.9389 29.3994 10.3034 27.6415 9.07387L29.5519 6.34233C31.7494 7.87923 33.5435 9.92367 34.7821 12.3021C36.0206 14.6805 36.667 17.3226 36.6663 20.0042C36.6657 22.6857 36.018 25.3275 34.7782 27.7053C33.5385 30.0831 31.7433 32.1266 29.5451 33.6624L27.636 30.9299C29.3946 29.7013 30.8307 28.0665 31.8225 26.1642C32.8143 24.262 33.3325 22.1486 33.333 20.0033C33.3335 17.8581 32.8164 15.7444 31.8256 13.8416Z"/>
<path d="M23.82 14.5365C24.6996 15.1516 25.4177 15.9699 25.9132 16.922C26.4088 17.874 26.6671 18.9317 26.6663 20.005C26.6655 21.0783 26.4056 22.1355 25.9086 23.0869C25.4117 24.0382 24.6923 24.8554 23.8118 25.4692L25.7179 28.2038C27.0387 27.2832 28.1177 26.0573 28.8631 24.6303C29.6086 23.2033 29.9985 21.6174 29.9997 20.0074C30.0009 18.3975 29.6133 16.811 28.87 15.3829C28.1267 13.9548 27.0495 12.7273 25.7301 11.8047L23.82 14.5365Z"/>
</svg>
