<svg width="16" height="16" viewBox="0 0 16 16" fill="none" xmlns="http://www.w3.org/2000/svg">
<path fill-rule="evenodd" clip-rule="evenodd" d="M7.98695 11.8324L4.56445 13.9236C4.47911 13.9756 4.38023 14.0011 4.28038 13.9968C4.18053 13.9924 4.08421 13.9586 4.00367 13.8994C3.92313 13.8402 3.86199 13.7584 3.82802 13.6644C3.79406 13.5704 3.7888 13.4685 3.81292 13.3715L4.80542 9.41812L1.92579 7.17831C1.84539 7.11608 1.78569 7.031 1.75451 6.93423C1.72333 6.83747 1.72215 6.73353 1.7511 6.63608C1.78006 6.53862 1.83781 6.4522 1.91677 6.38816C1.99572 6.32411 2.0922 6.28544 2.19354 6.27721L5.96041 5.967L7.52994 2.30538C7.56885 2.21466 7.63354 2.13736 7.71599 2.08307C7.79843 2.02879 7.895 1.9999 7.99372 2C8.09243 2.0001 8.18894 2.02918 8.27128 2.08363C8.35361 2.13808 8.41815 2.21551 8.45688 2.3063L10.0144 5.967L13.8062 6.27814C14.2641 6.31507 14.4377 6.89672 14.074 7.17923L11.1832 9.41812L12.1739 13.3743C12.198 13.4712 12.1928 13.5732 12.1588 13.6672C12.1248 13.7612 12.0637 13.843 11.9832 13.9022C11.9026 13.9613 11.8063 13.9952 11.7064 13.9995C11.6066 14.0038 11.5077 13.9784 11.4224 13.9264L7.98695 11.8324Z"/>
</svg>
