<svg width="100" height="101" viewBox="0 0 100 101" fill="none" xmlns="http://www.w3.org/2000/svg">
<path fill-rule="evenodd" clip-rule="evenodd" d="M0 0.0406799C0 55.1919 44.5466 99.9357 99.6228 100.263V58.4999C67.6133 58.1744 41.7613 32.1284 41.7613 0.0406799H0Z" fill="url(#paint0_linear_359_9013)"/>
<path d="M99.624 20.2438V22.3046C95.3036 22.3058 91.8844 22.3943 89.1876 22.8162C86.4717 23.2411 84.4773 24.0057 83.0301 25.3699C81.5826 26.7344 80.6938 28.688 80.1659 31.4667C79.6415 34.227 79.4716 37.8111 79.4694 42.4592H77.4085C77.4064 37.8111 77.2364 34.227 76.7121 31.4667C76.1842 28.688 75.2954 26.7344 73.8478 25.3699C72.4006 24.0057 70.4063 23.2411 67.6904 22.8162C64.9936 22.3943 61.5744 22.3058 57.254 22.3046V20.2438C61.6178 20.2427 65.0589 20.1665 67.7638 19.76C70.4876 19.3506 72.4769 18.6046 73.9135 17.2525C75.3505 15.9 76.2227 13.9521 76.7368 11.1643C77.2475 8.39491 77.4066 4.78622 77.4085 0.0891934H79.4694C79.4714 4.78583 79.6304 8.39432 80.141 11.1637C80.6549 13.9513 81.527 15.8993 82.9639 17.2519C84.4004 18.6041 86.3896 19.3502 89.1135 19.7597C91.8185 20.1664 95.2598 20.2427 99.624 20.2438Z" fill="#0171DD" stroke="#0171DD" stroke-width="0.178387"/>
<defs>
<linearGradient id="paint0_linear_359_9013" x1="75.021" y1="93.3729" x2="24.6017" y2="6.93204" gradientUnits="userSpaceOnUse">
<stop stop-color="#E6F1FC"/>
<stop offset="1" stop-color="#0071DC"/>
</linearGradient>
</defs>
</svg>
